<svg  width="137" height="145" viewBox="0 0 137 145" fill="none" xmlns="http://www.w3.org/2000/svg">
<g style="mix-blend-mode:lighten">
<path  d="M27.4551 75.0431L29.2504 80.6227C30.2217 83.6402 31.0888 86.0527 31.2018 86.0527C31.2036 86.0526 31.2055 86.0517 31.2067 86.0504C31.3309 85.9343 34.8446 75.1345 34.8446 75.1345H41.6543L33.4387 100.472H28.7055C28.7055 100.472 23.6534 85.028 23.6743 84.9697L18.4007 100.277H13.7152L5.60289 75.0432L12.3795 75.0479C12.3795 75.0479 16.0918 86.1845 16.1412 86.1845L16.1415 86.1842L19.8456 75.0429L27.4551 75.0431ZM3.28919 73.2882L4.03481 75.6074L12.147 100.841L12.5292 102.03H19.5599L19.9571 100.877L23.6187 90.2489C23.9343 91.2208 24.2753 92.2679 24.6163 93.3139C25.4562 95.8913 26.2978 98.4681 27.1403 101.045L27.5262 102.224H34.6214L35.0051 101.041L43.221 75.7041L43.9741 73.3812H33.663L33.2783 74.5636C32.5724 76.7331 31.8618 78.9011 31.1464 81.0668C31.0358 80.7305 30.9263 80.3937 30.8179 80.0566L29.0229 74.4772L28.6407 73.2893H18.6726L18.283 74.4608L16.1187 80.9706C15.3905 78.8027 14.6648 76.6336 13.9415 74.464L13.5517 73.295L12.3804 73.294L5.6038 73.2895L3.28919 73.2882ZM132.334 74.9449L132.319 81.586C132.319 81.586 125.56 81.5623 122.124 81.5623C120.981 81.5623 120.205 81.5654 120.168 81.5722C119.577 81.6863 119.2 83.0192 119.367 83.6038C119.45 83.8997 120.07 84.8659 120.74 85.7538C121.409 86.6418 122.508 88.0946 123.179 88.9816C124.901 91.2563 125.137 91.7054 125.297 93.0119C125.556 95.1339 124.608 97.4299 122.848 98.9441C121.084 100.463 121.162 100.473 108.068 100.473H107.493C99.53 100.471 95.3185 100.401 94.7054 100.257C93.6164 99.996 91.8807 98.4971 87.2949 93.8404C85.6454 92.1669 84.1246 90.7017 84.0467 90.7013C84.0445 90.7013 84.0438 90.7029 84.0438 90.7053L83.9896 100.474L76.5569 100.439L76.5111 75.2428H93.0879C98.084 75.4338 101.465 80.7017 100.792 84.0611C100.64 84.8237 100.25 85.9285 99.9265 86.5156C99.2617 87.7209 97.57 89.268 96.1971 89.9321C95.6901 90.1748 95.276 90.4576 95.276 90.5583C95.276 90.9331 96.9449 92.6726 97.5702 92.9489C98.1044 93.1853 99.6595 93.2379 106.517 93.2379L108.713 93.2384C115.606 93.2384 115.259 93.1857 115.792 91.9803C116.165 91.1415 115.881 90.6394 113.258 87.512C109.935 84.0121 110.283 82.3356 110.26 81.0976C110.213 79.6138 111.316 74.9467 117.054 74.9467L132.334 74.9449ZM87.804 86.5855C90.9864 86.5855 91.6326 86.5331 92.3097 86.2219C94.5956 85.1698 94.718 82.0627 92.5253 80.684C92.0449 80.3814 91.4278 80.3316 87.9783 80.3117L83.9865 80.2892C84.0197 80.322 83.9741 86.3309 83.9741 86.3309C83.9741 86.3309 84.9736 86.5855 87.804 86.5855ZM133.995 73.1918H117.054C113.734 73.1918 111.771 74.5784 110.709 75.7419C108.98 77.6337 108.574 80.016 108.605 81.139C108.606 81.2326 108.606 81.3286 108.604 81.4285C108.589 83.2537 108.843 85.3201 112.054 88.7143C112.688 89.4706 113.749 90.7388 114.151 91.369C113.274 91.483 111.05 91.483 108.713 91.483H107.721L106.517 91.4825C102.396 91.4825 98.9207 91.4699 98.2088 91.3213C98.1092 91.253 97.9694 91.1341 97.816 90.993C99.24 90.0654 100.68 88.6265 101.358 87.3966C101.769 86.6487 102.222 85.3711 102.413 84.4236C102.836 82.3144 102.139 79.7699 100.55 77.6153C98.6951 75.1015 95.9974 73.5976 93.1484 73.489L93.1184 73.4876H74.8517L74.8553 75.2447L74.901 100.441L74.9044 102.183L76.5502 102.191L83.9829 102.225L85.6362 102.233L85.6464 100.483L85.6783 94.6304C85.8299 94.7827 85.9867 94.9412 86.1483 95.1047C91.1649 100.197 92.8478 101.609 94.3395 101.966C94.7496 102.062 95.4274 102.223 107.492 102.226H108.067C114.599 102.226 117.878 102.226 119.828 102.027C122.061 101.798 122.78 101.262 123.857 100.333L123.893 100.302C126.105 98.3986 127.273 95.5186 126.94 92.786C126.723 91.0087 126.278 90.2706 124.471 87.8844L123.934 87.1744C123.301 86.3364 122.667 85.4985 122.034 84.6596C121.623 84.1152 121.3 83.6319 121.106 83.3154C121.361 83.3146 121.694 83.3142 122.124 83.3142C125.518 83.3142 132.246 83.3376 132.314 83.3381L133.971 83.3435L133.975 81.5888L133.991 74.9473L133.995 73.1918ZM85.6408 84.7684L85.6485 83.3311C85.6506 82.8928 85.6526 82.4536 85.6528 82.0512L87.9691 82.0641C89.3004 82.0716 91.3036 82.0833 91.694 82.2007C92.1922 82.5206 92.4706 83.0162 92.4401 83.5289C92.4236 83.8058 92.2991 84.3151 91.6488 84.6137C91.2865 84.7805 90.709 84.8323 87.8043 84.8323C86.8827 84.8323 86.1719 84.8041 85.6408 84.7684ZM61.4507 74.8416L69.793 100.244L62.9953 100.277L61.8667 96.4618L49.7129 96.3586L48.6403 100.178L41.9111 100.104L50.1478 74.8521L61.4507 74.8416ZM55.9844 78.5658C55.9673 78.6387 54.9194 81.6819 53.8679 84.7245C52.8078 87.7927 51.744 90.8604 51.7295 90.8844C51.7577 90.8757 55.522 90.8667 57.9345 90.8667C59.0636 90.8667 59.8963 90.8691 59.9118 90.8729L59.912 90.8742V90.8734L59.9118 90.8729C59.8695 90.7575 55.9966 78.7143 55.9844 78.5658L55.9846 78.5644L55.9844 78.5658ZM62.6282 73.0871L61.4497 73.0884L50.1468 73.0996L48.9675 73.101L48.5825 74.2814L40.346 99.5329L39.5959 101.832L41.8947 101.857L48.6236 101.932L49.8728 101.946L50.2287 100.679L50.9464 98.1234L60.6476 98.2057L61.4154 100.802L61.7808 102.038L63.004 102.032L69.8013 102L72.1193 101.988L71.3579 99.671L63.0156 74.2682L62.6282 73.0871ZM54.1137 89.116C54.4274 88.211 54.8499 86.9883 55.4239 85.3274L55.9192 83.8931L56.3684 85.2947C56.5022 85.7123 57.09 87.5455 57.5941 89.114C56.0949 89.1139 54.9665 89.1142 54.1137 89.116ZM64.2625 44.5215V50.789H52.4027V69.9575H45.3318V50.7737L31.4885 50.8151C29.8197 50.8151 29.596 52.2219 29.596 52.761C29.596 53.423 30.004 54.0846 32.2441 57.0868C33.6976 59.0369 35.0331 60.9832 35.2092 61.4083C36.1699 63.7489 34.9275 67.3952 32.6646 68.8766C31.0516 69.9314 31.3272 69.9575 19.3495 69.9575H4.51191V62.9164H24.7821L25.3806 62.4758C25.7843 62.178 26.0182 61.7684 26.1072 61.2071C26.2314 60.4006 26.1673 60.2955 23.6641 57.3109C20.7053 53.7825 20.3928 53.1384 20.5458 50.886C20.7196 48.3155 22.8854 44.581 26.6704 44.581L64.2625 44.5215ZM65.9189 42.7656L64.2598 42.7685L26.6679 42.8277C24.5025 42.8277 22.4915 43.8182 21.0067 45.6158C19.8029 47.0733 19.0129 48.9971 18.8936 50.7608C18.692 53.7216 19.336 54.7917 22.4251 58.475C23.3217 59.5439 24.174 60.5605 24.4585 60.9919C24.4557 61.004 24.4518 61.0154 24.4474 61.0268C24.4442 61.0296 24.4395 61.0333 24.4329 61.0383L24.2628 61.1633H2.85547V71.7108H19.3495C25.2551 71.7108 28.1699 71.7051 29.8873 71.5716C31.8522 71.4193 32.4791 71.0627 33.4183 70.4452L33.5354 70.3681C36.4883 68.4352 38.0101 63.8316 36.7286 60.7097C36.3331 59.7549 33.8292 56.3826 33.545 56.0013C32.7589 54.9477 31.4616 53.2095 31.2561 52.7063C31.2612 52.6643 31.2708 52.6202 31.2813 52.59C31.3154 52.5808 31.3809 52.5683 31.4884 52.5683L43.6753 52.5317V71.7105H54.0589V52.5418H65.9188L65.9189 42.7656ZM83.5308 44.7251L91.8499 70.1936L85.0648 70.1541L83.9634 66.3389L71.8638 66.2818L70.7827 69.9571H63.8735L72.1014 44.7251H83.5308ZM73.8384 60.8584L82.0794 60.8475V60.8477C82.1078 60.8477 78.0746 48.3126 78.0478 48.3037C78.0182 48.3027 73.7457 60.8584 73.8384 60.8584ZM84.7107 42.9719H70.9214L70.5366 44.1533L62.3081 69.3856L61.5498 71.7103H72.0027L72.3651 70.4781L73.0817 68.0412L82.737 68.0865L83.482 70.6664L83.8386 71.9L85.0574 71.9072L91.8429 71.9469L94.182 71.9605L93.4177 69.621L85.0986 44.1519L84.7107 42.9719ZM76.1395 59.1023C76.7557 57.2512 77.378 55.4021 78.0059 53.5554C78.601 55.402 79.1936 57.2493 79.784 59.0976L76.1395 59.1023ZM106.896 44.7251C112.263 44.7251 115.988 44.8061 116.704 44.9376C118.36 45.2427 119.857 46.178 120.979 47.616C122.153 49.1189 122.423 49.8381 122.576 51.8978C122.795 54.8061 121.489 57.3152 118.911 58.943C118.159 59.4188 117.387 59.8812 117.194 59.973C116.898 60.1152 116.938 60.2515 117.468 60.909C117.809 61.3321 118.402 61.9347 118.783 62.2477L119.478 62.8195L132.332 63.0145L132.458 69.9572H124.577C118.482 69.9572 116.532 69.8979 115.96 69.6944C115.105 69.3876 113.047 67.5425 108.864 63.3306L105.879 60.3238L105.91 69.9572H98.2398V44.7251H106.896ZM105.766 56.0699H109.839C113.802 56.0699 113.926 56.0566 114.491 55.6077C115.502 54.8056 115.86 53.9792 115.752 52.7105C115.643 51.4019 115.166 50.7209 113.972 50.173C113.298 49.8616 112.65 49.8114 109.474 49.8114H105.766V56.0699ZM106.896 42.9719H96.5851V71.7102H107.573L107.568 69.9512L107.549 64.4251L107.723 64.6005C112.896 69.8097 114.422 70.9935 115.429 71.3545C116.202 71.6305 117.496 71.7103 124.578 71.7103H134.147L134.115 69.9236L133.989 62.981L133.958 61.2865L132.357 61.2621L120.058 61.0756L119.8 60.8634C119.718 60.7954 119.619 60.7061 119.513 60.6047L119.763 60.4476C122.869 58.4858 124.497 55.3182 124.228 51.758C124.05 49.3565 123.644 48.2745 122.257 46.4986C120.894 44.7522 119.023 43.5845 116.988 43.2105C115.857 43.0031 110.18 42.9719 106.896 42.9719ZM107.422 51.5643H109.474C112.378 51.5643 112.954 51.6153 113.308 51.7793C113.981 52.0876 114.05 52.2375 114.102 52.8654C114.155 53.4897 114.082 53.7407 113.497 54.2046L113.451 54.241C113.065 54.3168 111.632 54.3168 109.839 54.3168H107.422V51.5643Z" fill="#FFC500"/>
<rect x="0.5" y="0.5" width="136" height="144" stroke="black"/>
</g>
</svg>
