<?xml version="1.0" ?><svg fill="#ffc500" id="Icons" viewBox="0 0 24 24" xmlns="http://www.w3.org/2000/svg"><title/><path d="M18.378,2.836a.891.891,0,0,0-.08-.07c-.132-.082-.271-.155-.407-.231l-.06-.034A11.828,11.828,0,0,0,16,1.683l-.014,0c-.288-.1-.58-.187-.875-.265-.087-.023-.176-.043-.264-.065q-.326-.078-.654-.14c-.106-.019-.211-.038-.318-.055-.216-.034-.433-.061-.65-.083-.1-.01-.2-.023-.293-.031C12.623,1.016,12.311,1,12,1s-.623.016-.934.04c-.1.008-.2.021-.293.031-.217.022-.434.049-.65.083-.107.017-.212.036-.318.055q-.328.061-.654.14c-.088.022-.177.042-.264.065-.295.078-.587.165-.875.265L8,1.683A11.828,11.828,0,0,0,6.169,2.5l-.06.034c-.136.076-.275.149-.407.231a.891.891,0,0,0-.08.07A9.464,9.464,0,0,0,1,11c0,.623.423,4.166,2.294,4.878a1.854,1.854,0,0,0,.774.111,7.993,7.993,0,0,0,15.865,0c.04,0,.085.014.124.014a1.845,1.845,0,0,0,.649-.12C22.577,15.168,23,11.625,23,11A9.464,9.464,0,0,0,18.378,2.836ZM7.684,3.979c.233-.11.469-.213.711-.3.062-.023.123-.05.186-.072a10.539,10.539,0,0,1,6.838,0c.063.023.124.049.187.072.242.091.477.194.71.3.075.035.148.071.222.108a4.991,4.991,0,0,1-9.076,0C7.536,4.05,7.609,4.014,7.684,3.979ZM12,21a6.006,6.006,0,0,1-6-6c0-.071,0-.143,0-.213.065-.067.13-.132.2-.2.133-.127.267-.254.408-.373.1-.085.207-.166.312-.247.149-.114.3-.228.451-.332.107-.072.215-.138.323-.205.159-.1.318-.2.48-.289.109-.06.218-.112.328-.167.163-.083.327-.167.491-.239.112-.05.224-.091.336-.136.159-.063.318-.129.475-.183.123-.041.241-.072.361-.108.142-.042.286-.088.424-.121s.28-.056.419-.081c.106-.019.217-.046.319-.059a4.619,4.619,0,0,1,1.342,0c.1.013.213.04.319.059.139.025.275.046.419.081s.282.079.424.121c.12.036.238.067.361.108.157.054.316.12.475.183.112.045.224.086.336.136.164.072.328.156.491.239.11.055.219.107.328.167.162.089.321.189.48.289.108.067.216.133.323.205.153.1.3.218.451.332.105.081.21.162.312.247.141.119.275.246.408.373.067.064.132.129.2.2,0,.07,0,.142,0,.213A6.006,6.006,0,0,1,12,21Zm8.042-7.021a1.348,1.348,0,0,1-.294-.265c-.012-.012-.025-.023-.037-.036h0l-.022-.022a11.752,11.752,0,0,0-6.816-3.594,6.381,6.381,0,0,0-1.746,0,11.752,11.752,0,0,0-6.816,3.594l-.022.022h0c-.012.013-.025.024-.037.036a1.348,1.348,0,0,1-.294.265A5.865,5.865,0,0,1,3,11,7.4,7.4,0,0,1,5.784,5.174a6.962,6.962,0,0,0,12.432,0A7.4,7.4,0,0,1,21,11,5.865,5.865,0,0,1,20.042,13.979Z"/><path d="M10,14a1,1,0,0,0-1,1v1a1,1,0,0,0,2,0V15A1,1,0,0,0,10,14Z"/><path d="M14,14a1,1,0,0,0-1,1v1a1,1,0,0,0,2,0V15A1,1,0,0,0,14,14Z"/></svg>