<?xml version="1.0" ?><svg fill="#ffc500" viewBox="0 0 512 512" xmlns="http://www.w3.org/2000/svg"><g id="Out_of_body_experience"><path d="M326,376.0636a45.812,45.812,0,0,0-50.4449-9.7145l-47.0826,20.1778L212.203,370.2563a68.6666,68.6666,0,0,0-16.4874-70.4817l-30.36-30.36c-25.968-25.9681-70.9656-28.69-97.7027-3.5163a68.7293,68.7293,0,0,0-1.5252,98.67l32.398,32.397a68.6583,68.6583,0,0,0,70.4786,16.4863l16.2695,16.2706-7.7161,18.0031A13.1088,13.1088,0,0,0,189.606,466H384.349a13.0828,13.0828,0,0,0,9.25-22.3354ZM129.2532,357.7989l-10.5017,10.5017a13.1195,13.1195,0,0,1-19.303-.81c-4.5288-5.332-3.5333-13.4732,1.4142-18.4217l9.8309-9.83a13.1236,13.1236,0,1,1,18.56,18.56Zm37.7942-37.79-10.5017,10.4975a13.1234,13.1234,0,0,1-19.303-.815c-4.5331-5.3342-3.5291-13.4785,1.4184-18.4271l9.8267-9.8235a13.1266,13.1266,0,0,1,18.56,18.5681Z"/><path d="M447.7267,177.0471l-18.0042,7.716-16.2738-16.2706A68.6572,68.6572,0,0,0,396.9656,98.01l-30.36-30.359c-25.968-25.968-70.9656-28.6906-97.7027-3.5162a68.7317,68.7317,0,0,0-1.53,98.6692l32.3981,32.3981a68.6674,68.6674,0,0,0,70.4828,16.4864l16.2695,16.2706L366.3491,275.04a45.8149,45.8149,0,0,0,9.7113,50.445l67.6032,67.602A13.0847,13.0847,0,0,0,466,383.8352V189.0965A13.1086,13.1086,0,0,0,447.7267,177.0471ZM332.5582,167.04a13.1243,13.1243,0,0,1-19.3072.81l-13.125-13.125a13.1236,13.1236,0,0,1,18.56-18.56L331.14,148.6181C336.0873,153.5667,337.087,161.7079,332.5582,167.04Zm37.8028-37.7985a13.1244,13.1244,0,0,1-19.3073.81l-13.125-13.125a13.1236,13.1236,0,1,1,18.56-18.56L368.9425,110.82C373.89,115.7682,374.89,123.9094,370.361,129.2414Z"/><path d="M255.9829,339.3888a13.1077,13.1077,0,0,0,2.5891-.2606c5.1441-1.0254,12.92-2.5806,21.14-10.805,8.2116-8.2117,9.7753-15.9748,10.8178-21.1658.7434-3.7213,1.0254-5.11,3.6316-7.7161a15.3969,15.3969,0,0,1,1.6321-1.4419l7.2717,7.2738a7.0048,7.0048,0,0,0,11.7194-3.1381l11.8176-44.1046a7.0038,7.0038,0,0,0-8.5791-8.577l-44.0961,11.8219a7.0031,7.0031,0,0,0-3.14,11.7162l6.4215,6.42c-.5383.4871-1.0724.9271-1.615,1.47-8.2117,8.2074-9.7754,15.9748-10.8179,21.1658-.7434,3.7213-1.0254,5.1142-3.6316,7.72-2.5891,2.5976-3.8879,2.854-7.716,3.623a13.1266,13.1266,0,0,0,2.5549,25.9979Z"/><path d="M72.2286,168.5H102.875v22.6643a8.7323,8.7323,0,0,0,14.9066,6.1759L146.625,168.5h30.6421A26.2308,26.2308,0,0,0,203.5,142.2714V72.23A26.2317,26.2317,0,0,0,177.2671,46H72.2244A26.2262,26.2262,0,0,0,46,72.2286V142.27A26.228,26.228,0,0,0,72.2286,168.5ZM107.25,72.2489h35a13.1245,13.1245,0,0,1,10.2454,21.3239L134.56,115.9989h7.69a13.125,13.125,0,1,1,0,26.25h-35a13.1244,13.1244,0,0,1-10.2454-21.3238L114.94,98.4989h-7.69a13.125,13.125,0,0,1,0-26.25Z"/></g></svg>