<svg fill="#ffc500" xmlns="http://www.w3.org/2000/svg" viewBox="0 0 64 64"><path d="M17,50a1,1,0,0,0,1-1V37h3a1,1,0,0,0,1-1V29a5.006,5.006,0,0,0-5-5h-.54a6,6,0,1,0-8.92,0H7a5.006,5.006,0,0,0-5,5v7a1,1,0,0,0,1,1H6V49a1,1,0,0,0,1,1ZM8,20a4,4,0,1,1,4,4A4,4,0,0,1,8,20Zm3,17V48H8V29H6v6H4V29a3,3,0,0,1,3-3H17a3,3,0,0,1,3,3v6H18V29H16V48H13V37Z"/><path d="M57,24h-.54a6,6,0,1,0-8.92,0H47a5.006,5.006,0,0,0-5,5v7a1,1,0,0,0,1,1h3V49a1,1,0,0,0,1,1H57a1,1,0,0,0,1-1V37h3a1,1,0,0,0,1-1V29A5.006,5.006,0,0,0,57,24Zm-9-4a4,4,0,1,1,4,4A4,4,0,0,1,48,20ZM60,35H58V29H56V48H53V37H51V48H48V29H46v6H44V29a3,3,0,0,1,3-3H57a3,3,0,0,1,3,3Z"/><path d="M51,7V8.586L48.707,6.293,47.293,7.707l4,4a1,1,0,0,0,1.414,0l4-4L55.293,6.293,53,8.586V7a5.006,5.006,0,0,0-5-5H25V4H48A3,3,0,0,1,51,7Z"/><path d="M13,7a3,3,0,0,1,3-3h7V2H16a5.006,5.006,0,0,0-5,5v5h2Z"/><path d="M13,57V55.414l2.293,2.293,1.414-1.414-4-4a1,1,0,0,0-1.414,0l-4,4,1.414,1.414L11,55.414V57a5.006,5.006,0,0,0,5,5H35V60H16A3,3,0,0,1,13,57Z"/><rect x="37" y="60" width="2" height="2"/><path d="M51,57a3,3,0,0,1-3,3H41v2h7a5.006,5.006,0,0,0,5-5V52H51Z"/></svg>