<?xml version="1.0" standalone="no"?>
<!DOCTYPE svg PUBLIC "-//W3C//DTD SVG 20010904//EN"
 "http://www.w3.org/TR/2001/REC-SVG-20010904/DTD/svg10.dtd">
<svg version="1.0" xmlns="http://www.w3.org/2000/svg"
 width="1280.000000pt" height="1109.000000pt" viewBox="0 0 1280.000000 1109.000000"
 preserveAspectRatio="xMidYMid meet">
<metadata>
Created by potrace 1.15, written by Peter Selinger 2001-2017
</metadata>
<g transform="translate(0.000000,1109.000000) scale(0.100000,-0.100000)"
fill="#000000" stroke="none">
<path d="M11445 11042 c-242 -91 -746 -298 -1690 -692 -253 -106 -554 -232
-670 -280 l-210 -88 -35 -201 c-19 -110 -39 -204 -45 -210 -8 -7 -1228 -515
-1865 -776 -63 -26 -178 -73 -255 -105 -77 -32 -453 -187 -835 -345 -382 -158
-900 -372 -1150 -475 -250 -103 -821 -339 -1268 -524 -447 -184 -820 -340
-831 -345 -15 -8 -23 -44 -46 -214 l-27 -203 -747 -307 c-410 -168 -753 -309
-761 -312 -12 -4 -38 50 -120 255 -58 143 -108 260 -111 260 -9 0 -509 -217
-516 -223 -3 -4 117 -302 203 -502 3 -6 -102 -55 -231 -110 l-236 -100 3 -79
3 -79 837 -347 836 -348 690 284 690 285 163 -121 c90 -66 168 -119 173 -117
6 3 525 217 1153 477 l1142 472 121 -107 121 -107 260 112 c142 62 262 110
265 107 9 -9 94 -256 94 -273 0 -9 -159 -361 -354 -782 -449 -974 -2048 -4433
-2150 -4651 -42 -91 -73 -168 -69 -172 10 -9 216 -100 219 -96 2 2 638 1124
1872 3304 642 1134 738 1298 744 1275 4 -15 17 -173 28 -352 19 -291 34 -516
85 -1265 8 -121 42 -618 75 -1105 32 -487 62 -913 65 -947 l7 -63 109 0 c79 0
111 4 114 13 2 6 24 361 49 787 26 426 51 845 56 930 6 85 35 569 65 1075 30
506 56 929 58 940 2 17 6 14 23 -15 12 -19 601 -1047 1309 -2285 708 -1237
1293 -2260 1301 -2272 l13 -21 111 46 c60 26 110 51 110 56 0 9 -192 422
-1025 2211 -253 542 -663 1422 -950 2040 -617 1325 -593 1275 -683 1375 -68
76 -133 123 -255 185 l-99 50 -68 170 c-38 94 -65 173 -62 177 4 4 122 54 262
111 l255 103 7 154 c4 85 11 157 15 160 12 10 1805 753 1828 757 18 4 71 -34
330 -238 6 -4 72 18 150 50 77 32 662 275 1300 541 638 265 1179 491 1202 501
83 39 144 133 180 274 22 87 24 374 4 510 -74 506 -306 1063 -599 1439 -146
187 -321 338 -449 386 -104 39 -141 37 -288 -18z m345 -323 c165 -78 395 -394
559 -770 144 -329 221 -627 221 -854 -1 -419 -237 -447 -529 -62 -376 497
-631 1375 -476 1643 46 78 120 93 225 43z"/>
</g>
</svg>
