<?xml version="1.0" encoding="iso-8859-1"?>
<!-- Generator: Adobe Illustrator 19.0.0, SVG Export Plug-In . SVG Version: 6.00 Build 0)  -->
<svg fill="#ffc500" version="1.1" id="Layer_1" xmlns="http://www.w3.org/2000/svg" xmlns:xlink="http://www.w3.org/1999/xlink" x="0px" y="0px"
	 viewBox="0 0 512.003 512.003" style="enable-background:new 0 0 512.003 512.003;" xml:space="preserve">
<g>
	<g>
		<g>
			<path d="M334.817,309.111c-2.575-2.793-5.161-5.606-7.767-8.445c-1.283-1.436-2.662-2.796-4.07-4.129
				c-1.393-1.336-2.801-2.696-4.204-4.055c-5.606-5.409-11.3-10.9-17.029-16.433c-2.798-2.847-5.806-5.422-8.822-8.041
				c-3.021-2.619-6.006-5.238-9.027-7.887c-3.008-2.619-6.057-5.258-9.06-7.9c-1.546-1.313-2.99-2.652-4.58-3.932l-4.844-3.758
				c-2.545-1.981-5.12-3.932-7.662-5.906c-3.561,2.365-7.811,3.758-12.39,3.758c-0.947,0-1.894-0.077-2.842-0.197
				c-3.177,6.518-6.065,13.025-9.132,19.523c-1.961,4.032-3.658,8.228-5.396,12.403l-5.21,12.534
				c-1.759,4.173-3.187,8.458-4.826,12.685l-4.795,12.698l-4.372,12.882c-1.413,4.273-3.023,8.522-4.206,12.895l-3.855,13.025
				l-1.999,6.497l-1.725,6.582c-1.764,6.717-3.61,13.42-5.192,20.157c2.081,0.965,3.955,2.235,5.609,3.748
				c1.014-0.681,1.984-1.347,2.985-2.015c5.363-3.354,10.852-6.761,16.417-10.255c11.295-6.715,23.083-13.463,35.484-19.546
				c3.1-1.554,6.19-3.11,9.303-4.698c3.133-1.457,6.303-2.916,9.492-4.396c6.344-2.87,12.703-5.837,19.274-8.358
				c6.523-2.542,12.948-5.312,19.571-7.69c6.63-2.345,13.179-4.746,19.748-6.989c0.975-0.294,1.928-0.571,2.898-0.865
				c0-0.174-0.028-0.353-0.028-0.515c0-4.426,1.316-8.535,3.54-11.999C335.683,310.03,335.227,309.585,334.817,309.111z"/>
			<path d="M277.128,4.963c-1.237,2.552-3.008,6.333-5.389,11.054c-1.172,2.365-2.488,4.984-3.927,7.823
				c-1.452,2.826-3.2,5.816-5.036,9.037c-3.763,6.364-7.639,13.86-12.762,21.394c-4.966,7.637-10.138,16.095-16.453,24.42
				c-3.095,4.206-6.205,8.599-9.516,12.982c-3.418,4.326-6.897,8.719-10.527,13.146c-1.807,2.191-3.638,4.426-5.468,6.671
				c-1.928,2.171-3.845,4.372-5.806,6.574c-3.909,4.372-7.805,8.896-11.863,13.322c-4.229,4.273-8.481,8.579-12.751,12.872
				c-2.158,2.158-4.229,4.403-6.474,6.454l-2.45,2.278c1.134,2.662,1.779,5.609,1.779,8.699c0,1.554-0.174,3.09-0.471,4.547
				c1.288,0.614,2.552,1.206,3.825,1.851c6.638,3.361,13.284,7.219,20.104,10.924c6.92,3.635,13.563,7.811,20.355,11.996
				c3.374,2.091,6.781,4.229,10.194,6.377c2.514,1.6,4.989,3.331,7.46,5.061c3.74-2.847,8.387-4.547,13.414-4.547
				c1.423,0,2.806,0.143,4.163,0.394l2.417-4.175c2.371-3.976,4.523-8.084,7.094-11.94l15.501-23.04l3.891-5.729
				c1.306-1.928,2.76-3.702,4.139-5.565c2.79-3.681,5.637-7.34,8.476-10.977c5.711-7.263,11.218-14.669,17.528-21.46
				c1.288-1.49,2.614-2.97,3.922-4.46c-2.793-3.702-4.457-8.305-4.457-13.322c0-6.869,3.105-13.025,8.023-17.101l-1.9-4.052
				c-3.435-8.064-6.656-16.212-9.943-24.32c-2.99-8.248-5.727-16.586-8.55-24.835l-3.556-12.588
				c-1.157-4.185-2.222-8.424-3.353-12.609c-0.005-0.011-0.01-0.022-0.015-0.033c-3.208-0.437-6.47-0.778-9.726-1.051
				C279.012,1.03,278.359,2.4,277.128,4.963z"/>
			<path d="M344.996,302.539c2.967-1.457,6.277-2.299,9.82-2.299c8.328,0,15.562,4.577,19.379,11.369
				c4.442-1.096,8.863-2.148,13.189-3.187c6.18-1.259,12.308-2.222,18.217-3.32c5.896-1.05,11.689-2.015,17.239-2.957
				c5.594-0.888,11.08-1.26,16.299-1.871c5.215-0.571,10.232-1.096,14.976-1.523c4.767-0.461,9.262-0.952,13.494-1.009
				c3.638-0.143,7.045-0.243,10.255-0.317c0.026-4.526,1.39-8.699,3.712-12.183c-0.745-0.527-1.462-1.042-2.181-1.567l-6.94-5.082
				l-6.676-5.412l-13.251-11c-2.176-1.851-4.47-3.602-6.572-5.563l-6.277-5.906l-12.529-11.843
				c-4.273-3.855-8.151-8.107-12.083-12.303l-11.75-12.654l-2.936-3.167l-2.788-3.287l-5.542-6.628l-10.918-13.366
				c-1.884-2.202-3.566-4.547-5.243-6.868l-5.11-6.968c-3.395-4.68-6.848-9.28-10.168-13.97c-3.256-4.754-6.234-9.684-9.359-14.538
				l-9.272-14.582c-2.181-3.725-4.229-7.56-6.3-11.372c-1.738,0.448-3.538,0.701-5.412,0.701c-3.561,0-6.922-0.865-9.915-2.355
				c-1.188,1.51-2.371,3.044-3.561,4.547c-5.827,6.968-10.854,14.559-16.038,21.975c-2.591,3.725-5.192,7.439-7.834,11.118
				c-1.311,1.864-2.696,3.658-3.899,5.565l-3.61,5.763l-14.446,23.007c-3.057,5.258-6.029,10.57-8.968,15.918
				c3.489,3.935,5.609,9.06,5.609,14.723c0,2.629-0.466,5.148-1.311,7.47c2.547,2.017,5.066,4.022,7.616,6.003l4.815,3.802
				c1.587,1.316,3.11,2.749,4.672,4.109c3.11,2.739,6.205,5.509,9.295,8.248c3.095,2.749,6.177,5.489,9.267,8.228
				c3.062,2.749,6.213,5.391,8.973,8.358c5.686,5.809,11.323,11.589,16.909,17.277c1.38,1.413,2.76,2.847,4.145,4.25
				c1.398,1.403,2.772,2.826,4.032,4.326c2.57,2.967,5.143,5.906,7.69,8.85C344.156,301.554,344.55,302.045,344.996,302.539z"/>
			<path d="M288.761,2.117c1.825,3.944,3.701,7.874,5.472,11.821l5.335,11.942c3.732,7.854,7.616,15.588,11.226,23.432
				c3.955,7.68,8.036,15.327,11.837,23.027c0.694,1.27,1.38,2.519,2.097,3.758c1.756-0.448,3.61-0.712,5.542-0.712
				c4.521,0,8.747,1.359,12.255,3.681l15.099-14.013c5.348-4.677,10.806-9.224,16.192-13.814
				c5.532-4.403,11.149-8.753,16.755-13.059C360.269,19.424,325.74,6.793,288.745,2.083c0,0.001,0.001,0.001,0.001,0.002
				c0.002,0,0.005,0.001,0.007,0.001C288.755,2.096,288.758,2.107,288.761,2.117z"/>
			<path d="M14.211,250.162c4.575-2.619,9.91-6.2,16.138-10.035c6.249-3.825,13.123-8.445,20.639-13.366
				c1.884-1.239,3.786-2.499,5.742-3.781c1.928-1.336,3.845-2.719,5.85-4.109c3.976-2.739,8.074-5.576,12.334-8.502
				c4.129-3.044,8.381-6.18,12.698-9.388c4.436-3.067,8.758-6.474,13.179-9.882c4.393-3.441,8.993-6.845,13.322-10.56
				c4.398-3.604,8.873-7.242,13.371-10.924c-0.947-2.476-1.485-5.138-1.485-7.931c0-1.61,0.174-3.19,0.52-4.7
				c-4.178-2.104-8.225-4.152-12.308-5.829c-11.146-4.897-21.276-9.685-30.525-13.179c-4.595-1.851-8.924-3.581-12.9-5.192
				c-3.955-1.7-7.713-2.98-11.069-4.196c-12.659-4.503-20.168-7.36-21.056-7.713c0.932,0.197,8.791,1.83,21.867,4.897
				c7.017,1.413,15.355,4.052,24.996,6.845c4.787,1.457,10.012,2.793,15.27,4.767c5.292,1.907,10.844,3.889,16.65,5.96
				c4.306,1.457,8.612,3.187,13.005,5.038c4.052-5.435,10.506-8.95,17.802-8.95c3.745,0,7.311,0.942,10.401,2.596l2.294-2.071
				c2.225-1.981,4.25-4.129,6.397-6.18c4.229-4.183,8.458-8.335,12.636-12.434c4.07-4.229,8.128-8.402,12.134-12.554
				c1.971-2.081,3.976-4.129,5.932-6.177c1.902-2.127,3.786-4.229,5.637-6.3c3.676-4.206,7.411-8.282,11.046-12.26
				c3.528-4.052,6.863-8.161,10.204-12.083c1.633-1.961,3.264-3.912,4.864-5.806c0.822-0.975,1.633-1.907,2.432-2.859
				c0.76-0.955,1.523-1.917,2.268-2.86c3.018-3.802,5.906-7.46,8.694-10.998c5.691-6.989,10.463-13.67,14.879-19.52
				c2.207-2.936,4.255-5.686,6.167-8.228c1.853-2.609,3.533-4.997,5.036-7.165c3.044-4.326,5.504-7.69,7.165-9.992
				c1.679-2.299,2.581-3.517,2.581-3.517c-7.598-0.684-15.255-1.024-23.022-1.024c-91.794,0-172.265,48.289-217.444,120.847
				C14.111,160.078,0,206.396,0,256.001c0,0.963,0,1.928,0.023,2.87C0.023,258.871,5.138,255.574,14.211,250.162z"/>
			<path d="M390.574,38.184c-4.923,5.094-9.887,10.133-14.879,15.13c-4.841,5.138-9.613,10.353-14.482,15.393l-13.494,15.16
				c2.99,3.781,4.787,8.545,4.787,13.76c0,6.08-2.437,11.569-6.392,15.601l6.528,10.824l9.29,14.154
				c3.136,4.7,6.075,9.498,9.362,14.088c3.361,4.526,6.577,9.17,9.892,13.75l4.913,6.891c1.633,2.299,3.238,4.623,5.036,6.771
				l10.565,13.279l5.187,6.671l2.598,3.341l2.76,3.21l11.103,12.828c3.735,4.229,7.219,8.699,11.197,12.731l11.617,12.378
				l5.786,6.223c1.9,2.104,3.999,4.009,5.998,6.016l12.137,11.93l6.011,6.057l6.298,5.729c0.65,0.573,1.285,1.165,1.928,1.746
				c4.029-4.076,9.618-6.595,15.785-6.595c3.978,0,7.718,1.042,10.934,2.893c0.648-7.286,0.965-14.679,0.965-22.139
				C512.003,163.992,463.46,83.316,390.574,38.184z"/>
			<path d="M478.213,301.203c-3.215,0.451-6.579,0.888-10.209,1.336c-4.224,0.451-8.627,1.316-13.268,2.202
				c-4.623,0.909-9.521,1.807-14.62,2.683c-5.061,0.998-10.376,1.72-15.821,2.993c-5.399,1.316-11.011,2.673-16.794,3.988
				c-5.763,1.357-11.712,2.616-17.733,4.173c-4.163,1.219-8.417,2.478-12.723,3.738v0.174c0,5.235-1.82,10.035-4.854,13.834
				c8.535,10.724,15.457,22.042,22.203,32.133c1.713,2.575,3.377,5.082,5,7.557c1.638,2.478,2.934,5.064,4.37,7.496
				c2.772,4.861,5.386,9.508,7.895,13.857c2.437,4.349,4.836,8.379,6.784,12.237c1.879,3.909,3.61,7.493,5.192,10.724
				c3.146,6.454,5.491,11.569,7.145,15.03c1.436,3.036,2.268,4.82,2.447,5.238c-0.248-0.374-1.293-2.051-3.095-4.92
				c-2.02-3.264-5.066-7.974-8.799-14.088c-1.871-3.044-3.922-6.397-6.177-10.058c-2.345-3.604-5.089-7.383-7.854-11.512
				c-2.801-4.078-5.757-8.458-8.904-13.048c-1.61-2.281-3.139-4.68-4.895-7.002c-1.748-2.322-3.556-4.698-5.381-7.109
				c-3.661-4.854-7.46-9.892-11.425-15.104c-1.951-2.619-3.935-5.271-6.231-7.836c-1.997-2.429-4.052-4.895-6.124-7.36
				c-2.893,1.38-6.126,2.168-9.539,2.168c-7.69,0-14.464-3.878-18.447-9.815c-0.965,0.328-1.902,0.648-2.836,0.975
				c-6.305,2.388-12.675,4.667-19.057,7.032c-6.403,2.378-12.703,5.174-19.044,7.734c-6.403,2.499-12.565,5.565-18.847,8.305
				c-3.113,1.413-6.223,2.803-9.339,4.206c-3.041,1.48-6.103,2.993-9.116,4.47c-6.08,2.993-12.132,5.883-17.923,9.124
				c-5.801,3.21-11.712,6.026-17.298,9.27c-5.588,3.21-11.098,6.351-16.466,9.464c-0.952,0.571-1.917,1.16-2.86,1.731
				c0.717,2.225,1.139,4.58,1.139,7.012c0,0.548-0.054,1.096-0.082,1.633c5.494,2.299,10.982,4.544,16.494,6.431l13.238,4.82
				c4.375,1.731,8.906,3.164,13.391,4.59l13.496,4.383c2.253,0.722,4.503,1.477,6.776,2.148l6.84,1.882
				c4.575,1.206,9.132,2.488,13.701,3.781l6.82,1.951l6.917,1.633l13.865,3.21c4.623,1.062,9.224,2.245,13.896,3.067
				c9.339,1.731,18.629,3.735,28.024,5.238l28.27,4.306c9.487,1.062,18.974,2.17,28.482,3.426
				c-9.548,0.232-19.141,0.296-28.74,0.296c-4.815,0.033-9.59-0.394-14.377-0.614l-14.413-0.788
				c-4.82-0.133-9.569-0.942-14.362-1.413l-14.354-1.654c-4.795-0.451-9.544-1.26-14.287-2.125l-14.267-2.465l-7.109-1.293
				l-7.068-1.577c-4.7-1.042-9.393-2.125-14.093-3.243l-7.068-1.677c-2.322-0.589-4.623-1.316-6.945-1.951l-13.934-4.009
				c-9.344-2.452-18.437-5.98-27.612-9.147c-5.806-1.894-11.364-4.099-16.876-6.351c-3.955,4.623-9.81,7.593-16.338,7.744
				c-1.037,5.827-1.951,11.635-2.921,17.462l-1.085,6.738l-0.87,6.792l-1.802,13.596c-1.106,9.06-1.874,18.186-2.959,27.3
				c25.915,8.852,53.727,13.65,82.637,13.65c60.012,0,115.226-20.662,158.871-55.27c-0.003,0-0.007,0-0.01,0l0.023-6.175v6.175
				h0.008c6.382-5.061,12.544-10.427,18.401-16.059c33.912-32.548,58.834-74.319,70.792-121.272c-1.272,0.22-2.619,0.34-3.978,0.34
				C489.08,319.74,479.962,311.709,478.213,301.203z"/>
			<path d="M172.877,470.821l0.323-13.793l0.251-6.912l0.481-6.902l0.975-13.814c0.092-1.38,0.264-2.737,0.412-4.099
				c-3.085-1.062-5.878-2.77-8.2-4.971c-1.457,0.942-2.893,1.905-4.273,2.87c-4.229,2.957-8.282,5.809-12.106,8.522
				c-1.951,1.336-3.835,2.652-5.668,3.932c-1.802,1.336-3.556,2.619-5.23,3.881c-3.397,2.519-6.584,4.874-9.498,7.043
				c-1.49,1.062-2.921,2.104-4.273,3.09c-1.311,1.039-2.575,2.028-3.763,2.97c-8.988,7.066-14.5,11.195-15.101,11.612
				c0.548-0.591,5.22-5.589,13.222-13.76c4.18-4.483,9.738-9.344,15.972-15.153c6.103-5.96,13.693-11.896,21.724-18.688
				c1.326-1.109,2.719-2.171,4.076-3.264c-1.26-2.796-1.974-5.883-1.974-9.147c0-0.888,0.067-1.774,0.169-2.639
				c-7.931-3.738-15.596-8.01-23.357-12.063l-6.403-3.43c-2.097-1.193-4.124-2.475-6.2-3.712l-12.413-7.483l-6.2-3.758l-6.003-4.032
				c-4.052-2.65-8.008-5.412-11.986-8.108c-4.032-2.673-7.887-5.586-11.738-8.479l-11.553-8.699
				c-3.873-2.836-7.483-6.08-11.185-9.147l-11.075-9.267c-3.681-3.09-7.094-6.551-10.627-9.782
				c-3.512-3.308-7.043-6.572-10.506-9.915c-6.72-6.812-13.274-13.78-19.776-20.856C9.19,357.61,49.134,422.78,107.156,464.301
				c20.099,14.385,42.348,25.92,66.196,34.051C173.102,489.181,172.728,479.991,172.877,470.821z"/>
			<path d="M12.675,291.759c3.763,2.97,7.416,6.057,11.223,8.983c7.706,5.642,15.145,11.538,22.868,17.07l11.656,8.238
				c3.904,2.683,7.685,5.576,11.743,8.054l11.886,7.834c3.955,2.616,7.877,5.258,12.006,7.613c4.052,2.445,8.128,4.844,12.16,7.34
				l6.057,3.704l6.18,3.461l12.408,6.902c2.076,1.126,4.134,2.345,6.229,3.407l6.333,3.21c7.608,3.855,15.096,7.91,22.853,11.448
				c3.812-4.052,9.124-6.671,15.086-6.968c1.254-6.999,2.793-13.944,4.229-20.936c1.677-9.093,4.344-17.969,6.615-26.939
				c1.091-4.503,2.563-8.873,3.878-13.32l4.052-13.279c2.97-8.742,6.008-17.495,9.318-26.15l5.192-12.872
				c1.725-4.306,3.433-8.599,5.44-12.828c3.062-6.717,6.026-13.617,9.247-20.191c-3.835-4.009-6.205-9.423-6.205-15.404
				c0-2.268,0.346-4.47,0.986-6.541c-2.345-1.687-4.705-3.364-7.094-4.931c-3.341-2.125-6.623-4.25-9.91-6.354
				c-6.551-4.25-12.928-8.589-19.484-12.303c-6.541-3.802-12.774-7.734-19.226-11.261c-1.28-0.701-2.509-1.37-3.781-2.058
				c-4.052,4.447-9.882,7.242-16.376,7.242c-4.086,0-7.887-1.106-11.185-3.036c-9.434,7.416-18.821,14.756-28.27,21.099
				c-9.219,6.748-18.657,12.511-27.53,18.066c-9.098,5.225-17.495,10.44-25.702,14.415c-4.058,2.092-7.936,4.076-11.64,5.983
				c-3.681,1.907-7.373,3.384-10.703,4.941c-6.748,3.09-12.603,5.729-17.6,7.56c-9.887,3.878-15.593,5.916-15.593,5.916
				c0.077,8.108,0.548,16.105,1.357,23.992C5.181,285.789,8.922,288.803,12.675,291.759z"/>
		</g>
	</g>
</g>
<g>
</g>
<g>
</g>
<g>
</g>
<g>
</g>
<g>
</g>
<g>
</g>
<g>
</g>
<g>
</g>
<g>
</g>
<g>
</g>
<g>
</g>
<g>
</g>
<g>
</g>
<g>
</g>
<g>
</g>
</svg>
