<?xml version="1.0" ?><svg fill="#ffc500" viewBox="0 0 64 64" xmlns="http://www.w3.org/2000/svg"><g id="outling-cut"><path d="M57.441,5.012a1,1,0,0,0-1.407-.146L41.147,16.959l-9.174,7.452h0l-1.551,1.26L29.16,24.121l.729-.592L36.675,19.3a1.226,1.226,0,0,0,.1-.072L39.1,17.331a1,1,0,0,0,.146-1.407l-3.782-4.657a1,1,0,0,0-1.407-.146l-2.33,1.892a1,1,0,0,0,1.262,1.552L34.546,13.3l2.521,3.1-1.5,1.222L29.526,21.4l-1.41-1.734L30.6,17.072a1,1,0,0,0-1.444-1.384l-3.051,3.183-9.193,7.466-4.421,2.33a1,1,0,0,0-.31,1.516l3.783,4.656a1,1,0,0,0,.771.369h0a1,1,0,0,0,.771-.362L20.7,30.994l.7-.569,1.261,1.553-1.553,1.26-3.237,2.63a2.982,2.982,0,0,0-1.094,2.021l-.266,2.581-2.1.2a3.018,3.018,0,0,0-1.762.79L9.524,44.362a1,1,0,0,0,1.362,1.465l3.127-2.905a1.006,1.006,0,0,1,.587-.264l2.913-.275a1,1,0,0,0,.9-.893l.352-3.4a.987.987,0,0,1,.364-.673l2.462-2,1.223,1.506.343.423-1.949,7.09a3.014,3.014,0,0,1-.472.976L11.106,58.591a.989.989,0,0,1-.781.409,1.063,1.063,0,0,1-.8-.37L7.371,55.979l5.675-5.895A1,1,0,0,0,11.6,48.7L6.1,54.415,4.773,52.782a1,1,0,0,1,.1-1.363l3.367-3.128a1,1,0,1,0-1.361-1.465L3.507,49.954a3.009,3.009,0,0,0-.286,4.09L4.7,55.868l-.423.439a1,1,0,0,0,1.442,1.386l.252-.261,2,2.46A2.98,2.98,0,0,0,10.3,61h.079a2.979,2.979,0,0,0,2.345-1.228L22.353,46.6a5,5,0,0,0,.784-1.625l2-7.277,2.081-1.69a4,4,0,1,0,6.21-5.044l1.7-1.382a2.952,2.952,0,0,0,3.441-.219l10.867-8.827a2.967,2.967,0,0,0,.925-3.329L54,14.251A1,1,0,1,0,52.736,12.7l-3.494,2.838-1.26-1.552L56.52,7.049,57.78,8.6l-2.127,1.727a1,1,0,0,0,1.262,1.553l2.9-2.359a1,1,0,0,0,.146-1.407ZM31.393,30.036l0,0L27.6,33.114l-3.2,2.6-1.26-1.553,1.55-1.259,0,0h0l6.2-5.04,0,0,0,0,1.549-1.259,1.261,1.553Zm-4.756-9.02,1.2,1.472.065.08-.773.629h0l0,0-6.206,5.041h0l-.776.63-1.2-1.472-.065-.081ZM16.748,32.631,14.5,29.868l2.706-1.426L18.7,30.274Zm6.2-3.467,4.656-3.782,1.261,1.551-4.657,3.783Zm9.361,4.524a1.981,1.981,0,0,1-.728,1.346,2,2,0,0,1-2.813-.29l3.1-2.522A1.983,1.983,0,0,1,32.312,33.688ZM46.43,15.245l1.89,2.329a1,1,0,0,1-.145,1.406L37.309,27.808a1,1,0,0,1-1.407-.146L34.01,25.333l7.843-6.371Z"/><path d="M14.42,47.02a.97.97,0,0,0,.38.07.954.954,0,0,0,.7-.29.87.87,0,0,0,.22-.321,1.041,1.041,0,0,0,.08-.389.979.979,0,0,0-.3-.7.639.639,0,0,0-.15-.13.81.81,0,0,0-.17-.09,1.143,1.143,0,0,0-.19-.061,1.341,1.341,0,0,0-.39,0,1.363,1.363,0,0,0-.18.061.891.891,0,0,0-.18.09,1.6,1.6,0,0,0-.15.13.961.961,0,0,0-.29.7.935.935,0,0,0,.29.71A1.048,1.048,0,0,0,14.42,47.02Z"/><path d="M49.632,4.914l-6.986,5.674a1,1,0,0,0,1.261,1.553l6.987-5.674a1,1,0,0,0-1.262-1.553Z"/><path d="M52.979,2.24a1.207,1.207,0,0,0-.319.22.958.958,0,0,0-.221.33,1,1,0,0,0-.069.38.954.954,0,0,0,.29.7,1.006,1.006,0,0,0,1.71-.7,1.014,1.014,0,0,0-1.391-.93Z"/></g></svg>