<?xml version="1.0" encoding="iso-8859-1"?>
<!-- Generator: Adobe Illustrator 19.1.0, SVG Export Plug-In . SVG Version: 6.00 Build 0)  -->
<svg fill="#ffc500" version="1.1" id="Capa_1" xmlns="http://www.w3.org/2000/svg" xmlns:xlink="http://www.w3.org/1999/xlink" x="0px" y="0px"
	 viewBox="0 0 284.554 284.554" style="enable-background:new 0 0 284.554 284.554;" xml:space="preserve">
<path d="M167.45,233.726c10.262,0,19.92-1.811,28.974-4.829l0,0l3.018-1.207c0.604,0,1.207-0.604,2.414-0.604
	c0.604,0,1.207-0.604,1.811-0.604c4.829-2.414,9.658-4.829,14.487-7.847l0.604-0.604c4.829-3.018,9.054-6.64,13.28-10.865l0,0
	c1.811-1.811,3.622-4.225,5.433-6.036l1.811-2.414l0,0c12.072-15.694,19.316-34.407,19.316-55.533c0-0.604,0-0.604,0-1.207l0,0
	v-3.018c0-1.207,0-2.414-0.604-3.622c0-0.604,0-1.207,0-1.811c0-2.414-0.604-5.433-1.207-7.847c0-0.604-0.604-1.207-0.604-2.414
	c-0.604-1.811-1.207-4.225-1.811-6.036c0-0.604-0.604-1.207-0.604-1.811c-0.604-2.414-1.811-4.829-2.414-7.244
	c0-0.604-0.604-1.207-0.604-1.811c-0.604-1.811-1.811-4.225-3.018-6.036c0-0.604-0.604-0.604-0.604-1.207
	c-1.207-1.811-2.414-4.225-3.622-6.036l-1.811-2.414l0,0c-11.469-16.298-27.767-28.37-47.083-34.407l0,0l-3.018-0.604
	c-1.811-0.604-3.622-0.604-4.829-1.207c-0.604,0-1.207,0-1.207,0c-2.414-0.604-4.829-0.604-7.243-1.207c-0.604,0-1.811,0-2.414,0
	c-2.414,0-4.829-0.604-7.243-0.604h-0.604h-0.604c-2.414,0-4.829,0-7.243,0.604c-0.604,0-1.811,0-2.414,0
	c-2.414,0-4.829,0.604-6.64,1.207c-0.604,0-1.207,0-1.811,0.604c-1.811,0.604-3.622,0.604-4.829,1.207l-3.018,0.604l0,0
	c-19.316,6.036-35.614,18.712-47.082,35.01l0,0l-1.811,3.018c-1.207,1.811-2.414,3.622-3.622,6.036l-0.604,0.604
	c-1.207,1.811-1.811,4.225-3.018,6.036c0,0.604-0.604,1.207-0.604,1.811c-1.207,2.414-1.811,4.829-2.414,7.244
	c0,0.604-0.604,1.207-0.604,1.811c-0.604,1.811-1.207,3.622-1.811,6.036c0,0.604-0.604,1.811-0.604,2.414
	c-0.604,2.414-0.604,4.829-1.207,7.244c0,0.604,0,1.207,0,1.811c0,1.207,0,3.018-0.604,4.225v3.018l0,0v0.604
	c0,22.938,8.451,44.064,22.938,60.362l0,0l2.414,2.414c0.604,0.604,1.207,1.207,1.207,1.207c0.604,0.604,0.604,0.604,1.207,1.207
	c3.622,3.622,7.847,7.244,12.072,10.262c0.604,0,0.604,0.604,1.207,0.604c2.414,1.207,4.225,3.018,6.64,4.225l0,0
	c2.414,1.207,4.829,2.414,7.244,3.622c0.604,0,1.207,0.604,1.207,0.604c2.414,1.207,5.433,1.811,7.847,3.018l3.018,1.207l0,0
	C151.153,232.519,159,233.726,167.45,233.726z M167.45,221.654c-4.225,0-8.451-0.604-12.072-1.207l2.414-1.811l24.749-1.207
	l3.018,2.414C179.523,220.447,173.487,221.654,167.45,221.654z M138.476,216.221c-1.207-0.604-2.414-1.207-3.622-1.811
	c-1.207-0.604-2.414-1.207-3.622-1.811c-1.207-0.604-2.414-1.207-3.622-1.811c-1.207-0.604-2.414-1.207-3.018-1.811
	c-1.207-0.604-2.414-1.811-3.622-2.414c-1.207-0.604-1.811-1.207-3.018-2.414s-2.414-1.811-3.622-3.018
	c-0.604-0.604-1.207-1.207-1.811-1.811l1.811-7.847l24.145-2.414l9.658,22.334l-6.64,6.036
	C140.287,216.221,139.684,216.221,138.476,216.221z M88.375,135.336c0-2.414,0.604-4.829,1.207-7.244c0-0.604,0-0.604,0-1.207
	c1.207-5.433,3.018-10.865,4.829-16.298c0.604-0.604,0.604-1.811,1.207-2.414c0.604-1.811,1.811-3.622,2.414-4.829
	c0-0.604,0.604-0.604,0.604-1.207h7.244l6.64,23.541l-19.919,13.883l-4.225-3.622C88.375,135.939,88.375,135.336,88.375,135.336z
	 M149.945,64.712c2.414-0.604,4.225-0.604,6.64-1.207c0.604,0,1.207,0,1.811,0c6.036-0.604,11.469-0.604,17.505,0
	c0.604,0,1.207,0,1.811,0c2.414,0,4.225,0.604,6.64,1.207h0.604l1.811,4.829l-19.92,14.487l-19.919-14.487l1.811-4.829
	C149.342,65.316,149.945,64.712,149.945,64.712z M236.263,103.344c0.604,1.207,1.207,2.414,1.811,4.225
	c0.604,1.207,1.207,2.414,1.811,3.018c0.604,1.811,1.207,3.622,1.811,4.829c0.604,0.604,0.604,1.811,1.207,2.414
	c0.604,2.414,1.811,5.433,2.414,7.847c0,0.604,0,0.604,0,1.207c0.604,2.414,0.604,4.829,1.207,7.244v0.604l-6.036,4.225
	l-19.316-14.487l7.847-22.938h6.64C235.66,102.137,236.263,102.74,236.263,103.344z M224.794,196.905
	c-0.604,0.604-1.811,1.811-2.414,2.414c-1.207,1.207-2.414,1.811-3.018,3.018c-1.207,0.604-1.811,1.811-3.018,2.414
	c-1.207,0.604-2.414,1.811-3.622,2.414c-1.207,0.604-2.414,1.811-3.622,2.414c-1.207,0.604-2.414,1.207-3.018,1.811
	c-1.207,0.604-3.018,1.811-4.225,2.414c-0.604,0.604-1.811,0.604-2.414,1.207l-7.243-6.036l8.451-22.938l24.145,1.207l1.811,7.244
	C226.002,195.698,225.398,196.302,224.794,196.905z M180.126,205.356l-21.127,1.207l-10.262-24.145l6.036-12.676h26.559
	l8.451,11.469L180.126,205.356z M167.45,120.245l19.92,14.487l-7.243,22.938h-24.145l-7.243-22.938L167.45,120.245z
	 M224.794,175.175l-25.352-1.207l-8.451-11.469l8.451-25.352l13.883-3.622l20.523,15.694L224.794,175.175z M209.1,122.056
	l-13.883,3.622l-21.73-15.694V95.497l20.523-15.091l23.541,17.505L209.1,122.056z M140.891,79.803l20.523,15.091v14.487
	l-22.938,16.901l-13.28-3.018l-7.244-24.749L140.891,79.803z M120.971,134.732l15.091,3.622l7.847,24.749l-6.64,13.28l-25.352,2.414
	L99.241,149.22L120.971,134.732z M235.66,182.418v-0.604l10.262-31.388l0.604-0.604C245.317,161.895,241.091,172.76,235.66,182.418z
	 M226.604,89.461l-24.145-18.109C211.514,75.577,219.964,82.217,226.604,89.461z M133.044,70.748l-24.145,19.316h-1.207
	C114.332,82.217,123.386,75.577,133.044,70.748z M88.979,154.048l13.28,31.992v1.207C95.619,177.589,90.789,166.121,88.979,154.048z
	"/>
<path d="M160.811,1.935L155.378,12.8c1.207,0.604,117.103,59.155,117.103,134.608c0,44.064-39.235,85.714-117.103,124.346
	l5.433,10.865c82.093-41.046,123.743-86.318,123.743-135.211C284.552,64.712,166.243,4.35,160.811,1.935z"/>
<path d="M0.851,135.939h66.398v12.072H0.851V135.939z M63.618,97.263L0.225,73.747l4.199-11.32l63.393,23.515L63.618,97.263z
	 M63.386,187.154l4.197,11.319L4.197,221.979L0,210.66L63.386,187.154z"/>
<g>
</g>
<g>
</g>
<g>
</g>
<g>
</g>
<g>
</g>
<g>
</g>
<g>
</g>
<g>
</g>
<g>
</g>
<g>
</g>
<g>
</g>
<g>
</g>
<g>
</g>
<g>
</g>
<g>
</g>
</svg>
